<?xml version="1.0" encoding="utf-8" standalone="no"?>
<!DOCTYPE svg PUBLIC "-//W3C//DTD SVG 1.1//EN"
  "http://www.w3.org/Graphics/SVG/1.1/DTD/svg11.dtd">
<!-- Created with matplotlib (https://matplotlib.org/) -->
<svg height="288pt" version="1.1" viewBox="0 0 432 288" width="432pt" xmlns="http://www.w3.org/2000/svg" xmlns:xlink="http://www.w3.org/1999/xlink">
 <defs>
  <style type="text/css">
*{stroke-linecap:butt;stroke-linejoin:round;}
  </style>
 </defs>
 <g id="figure_1">
  <g id="patch_1">
   <path d="M 0 288 
L 432 288 
L 432 0 
L 0 0 
z
" style="fill:#ffffff;"/>
  </g>
  <g id="axes_1">
   <g id="patch_2">
    <path d="M 54 252 
L 388.8 252 
L 388.8 34.56 
L 54 34.56 
z
" style="fill:#ffffff;"/>
   </g>
   <g id="patch_3">
    <path clip-path="url(#pe4b40714a4)" d="M 69.50233 252 
L 75.972106 252 
L 75.972106 251.65771 
L 69.50233 251.65771 
z
" style="fill:#c6a9b5;opacity:0.4;"/>
   </g>
   <g id="patch_4">
    <path clip-path="url(#pe4b40714a4)" d="M 75.972106 252 
L 82.441882 252 
L 82.441882 251.144274 
L 75.972106 251.144274 
z
" style="fill:#c6a9b5;opacity:0.4;"/>
   </g>
   <g id="patch_5">
    <path clip-path="url(#pe4b40714a4)" d="M 82.441882 252 
L 88.911659 252 
L 88.911659 248.06366 
L 82.441882 248.06366 
z
" style="fill:#c6a9b5;opacity:0.4;"/>
   </g>
   <g id="patch_6">
    <path clip-path="url(#pe4b40714a4)" d="M 88.911659 252 
L 95.381435 252 
L 95.381435 239.164109 
L 88.911659 239.164109 
z
" style="fill:#c6a9b5;opacity:0.4;"/>
   </g>
   <g id="patch_7">
    <path clip-path="url(#pe4b40714a4)" d="M 95.381435 252 
L 101.851211 252 
L 101.851211 239.506399 
L 95.381435 239.506399 
z
" style="fill:#c6a9b5;opacity:0.4;"/>
   </g>
   <g id="patch_8">
    <path clip-path="url(#pe4b40714a4)" d="M 101.851211 252 
L 108.320988 252 
L 108.320988 234.029752 
L 101.851211 234.029752 
z
" style="fill:#c6a9b5;opacity:0.4;"/>
   </g>
   <g id="patch_9">
    <path clip-path="url(#pe4b40714a4)" d="M 108.320988 252 
L 114.790764 252 
L 114.790764 236.939221 
L 108.320988 236.939221 
z
" style="fill:#c6a9b5;opacity:0.4;"/>
   </g>
   <g id="patch_10">
    <path clip-path="url(#pe4b40714a4)" d="M 114.790764 252 
L 121.26054 252 
L 121.26054 239.506399 
L 114.790764 239.506399 
z
" style="fill:#c6a9b5;opacity:0.4;"/>
   </g>
   <g id="patch_11">
    <path clip-path="url(#pe4b40714a4)" d="M 121.26054 252 
L 127.730317 252 
L 127.730317 241.560142 
L 121.26054 241.560142 
z
" style="fill:#c6a9b5;opacity:0.4;"/>
   </g>
   <g id="patch_12">
    <path clip-path="url(#pe4b40714a4)" d="M 127.730317 252 
L 134.200093 252 
L 134.200093 240.704416 
L 127.730317 240.704416 
z
" style="fill:#c6a9b5;opacity:0.4;"/>
   </g>
   <g id="patch_13">
    <path clip-path="url(#pe4b40714a4)" d="M 134.200093 252 
L 140.669869 252 
L 140.669869 245.667627 
L 134.200093 245.667627 
z
" style="fill:#c6a9b5;opacity:0.4;"/>
   </g>
   <g id="patch_14">
    <path clip-path="url(#pe4b40714a4)" d="M 140.669869 252 
L 147.139646 252 
L 147.139646 247.72137 
L 140.669869 247.72137 
z
" style="fill:#c6a9b5;opacity:0.4;"/>
   </g>
   <g id="patch_15">
    <path clip-path="url(#pe4b40714a4)" d="M 147.139646 252 
L 153.609422 252 
L 153.609422 249.603967 
L 147.139646 249.603967 
z
" style="fill:#c6a9b5;opacity:0.4;"/>
   </g>
   <g id="patch_16">
    <path clip-path="url(#pe4b40714a4)" d="M 153.609422 252 
L 160.079199 252 
L 160.079199 250.117403 
L 153.609422 250.117403 
z
" style="fill:#c6a9b5;opacity:0.4;"/>
   </g>
   <g id="patch_17">
    <path clip-path="url(#pe4b40714a4)" d="M 160.079199 252 
L 166.548975 252 
L 166.548975 250.288548 
L 160.079199 250.288548 
z
" style="fill:#c6a9b5;opacity:0.4;"/>
   </g>
   <g id="patch_18">
    <path clip-path="url(#pe4b40714a4)" d="M 166.548975 252 
L 173.018751 252 
L 173.018751 250.973129 
L 166.548975 250.973129 
z
" style="fill:#c6a9b5;opacity:0.4;"/>
   </g>
   <g id="patch_19">
    <path clip-path="url(#pe4b40714a4)" d="M 173.018751 252 
L 179.488528 252 
L 179.488528 251.65771 
L 173.018751 251.65771 
z
" style="fill:#c6a9b5;opacity:0.4;"/>
   </g>
   <g id="patch_20">
    <path clip-path="url(#pe4b40714a4)" d="M 179.488528 252 
L 185.958304 252 
L 185.958304 251.144274 
L 179.488528 251.144274 
z
" style="fill:#c6a9b5;opacity:0.4;"/>
   </g>
   <g id="patch_21">
    <path clip-path="url(#pe4b40714a4)" d="M 185.958304 252 
L 192.42808 252 
L 192.42808 250.801983 
L 185.958304 250.801983 
z
" style="fill:#c6a9b5;opacity:0.4;"/>
   </g>
   <g id="patch_22">
    <path clip-path="url(#pe4b40714a4)" d="M 192.42808 252 
L 198.897857 252 
L 198.897857 250.973129 
L 192.42808 250.973129 
z
" style="fill:#c6a9b5;opacity:0.4;"/>
   </g>
   <g id="patch_23">
    <path clip-path="url(#pe4b40714a4)" d="M 198.897857 252 
L 205.367633 252 
L 205.367633 251.486564 
L 198.897857 251.486564 
z
" style="fill:#c6a9b5;opacity:0.4;"/>
   </g>
   <g id="patch_24">
    <path clip-path="url(#pe4b40714a4)" d="M 205.367633 252 
L 211.837409 252 
L 211.837409 252 
L 205.367633 252 
z
" style="fill:#c6a9b5;opacity:0.4;"/>
   </g>
   <g id="patch_25">
    <path clip-path="url(#pe4b40714a4)" d="M 211.837409 252 
L 218.307186 252 
L 218.307186 251.144274 
L 211.837409 251.144274 
z
" style="fill:#c6a9b5;opacity:0.4;"/>
   </g>
   <g id="patch_26">
    <path clip-path="url(#pe4b40714a4)" d="M 218.307186 252 
L 224.776962 252 
L 224.776962 251.144274 
L 218.307186 251.144274 
z
" style="fill:#c6a9b5;opacity:0.4;"/>
   </g>
   <g id="patch_27">
    <path clip-path="url(#pe4b40714a4)" d="M 224.776962 252 
L 231.246738 252 
L 231.246738 251.65771 
L 224.776962 251.65771 
z
" style="fill:#c6a9b5;opacity:0.4;"/>
   </g>
   <g id="patch_28">
    <path clip-path="url(#pe4b40714a4)" d="M 231.246738 252 
L 237.716515 252 
L 237.716515 251.65771 
L 231.246738 251.65771 
z
" style="fill:#c6a9b5;opacity:0.4;"/>
   </g>
   <g id="patch_29">
    <path clip-path="url(#pe4b40714a4)" d="M 237.716515 252 
L 244.186291 252 
L 244.186291 251.486564 
L 237.716515 251.486564 
z
" style="fill:#c6a9b5;opacity:0.4;"/>
   </g>
   <g id="patch_30">
    <path clip-path="url(#pe4b40714a4)" d="M 244.186291 252 
L 250.656067 252 
L 250.656067 252 
L 244.186291 252 
z
" style="fill:#c6a9b5;opacity:0.4;"/>
   </g>
   <g id="patch_31">
    <path clip-path="url(#pe4b40714a4)" d="M 250.656067 252 
L 257.125844 252 
L 257.125844 252 
L 250.656067 252 
z
" style="fill:#c6a9b5;opacity:0.4;"/>
   </g>
   <g id="patch_32">
    <path clip-path="url(#pe4b40714a4)" d="M 257.125844 252 
L 263.59562 252 
L 263.59562 251.65771 
L 257.125844 251.65771 
z
" style="fill:#c6a9b5;opacity:0.4;"/>
   </g>
   <g id="patch_33">
    <path clip-path="url(#pe4b40714a4)" d="M 263.59562 252 
L 270.065397 252 
L 270.065397 252 
L 263.59562 252 
z
" style="fill:#c6a9b5;opacity:0.4;"/>
   </g>
   <g id="patch_34">
    <path clip-path="url(#pe4b40714a4)" d="M 270.065397 252 
L 276.535173 252 
L 276.535173 252 
L 270.065397 252 
z
" style="fill:#c6a9b5;opacity:0.4;"/>
   </g>
   <g id="patch_35">
    <path clip-path="url(#pe4b40714a4)" d="M 276.535173 252 
L 283.004949 252 
L 283.004949 252 
L 276.535173 252 
z
" style="fill:#c6a9b5;opacity:0.4;"/>
   </g>
   <g id="patch_36">
    <path clip-path="url(#pe4b40714a4)" d="M 283.004949 252 
L 289.474726 252 
L 289.474726 252 
L 283.004949 252 
z
" style="fill:#c6a9b5;opacity:0.4;"/>
   </g>
   <g id="patch_37">
    <path clip-path="url(#pe4b40714a4)" d="M 289.474726 252 
L 295.944502 252 
L 295.944502 252 
L 289.474726 252 
z
" style="fill:#c6a9b5;opacity:0.4;"/>
   </g>
   <g id="patch_38">
    <path clip-path="url(#pe4b40714a4)" d="M 295.944502 252 
L 302.414278 252 
L 302.414278 251.828855 
L 295.944502 251.828855 
z
" style="fill:#c6a9b5;opacity:0.4;"/>
   </g>
   <g id="patch_39">
    <path clip-path="url(#pe4b40714a4)" d="M 302.414278 252 
L 308.884055 252 
L 308.884055 252 
L 302.414278 252 
z
" style="fill:#c6a9b5;opacity:0.4;"/>
   </g>
   <g id="patch_40">
    <path clip-path="url(#pe4b40714a4)" d="M 308.884055 252 
L 315.353831 252 
L 315.353831 251.828855 
L 308.884055 251.828855 
z
" style="fill:#c6a9b5;opacity:0.4;"/>
   </g>
   <g id="patch_41">
    <path clip-path="url(#pe4b40714a4)" d="M 315.353831 252 
L 321.823607 252 
L 321.823607 251.65771 
L 315.353831 251.65771 
z
" style="fill:#c6a9b5;opacity:0.4;"/>
   </g>
   <g id="patch_42">
    <path clip-path="url(#pe4b40714a4)" d="M 321.823607 252 
L 328.293384 252 
L 328.293384 252 
L 321.823607 252 
z
" style="fill:#c6a9b5;opacity:0.4;"/>
   </g>
   <g id="patch_43">
    <path clip-path="url(#pe4b40714a4)" d="M 328.293384 252 
L 334.76316 252 
L 334.76316 252 
L 328.293384 252 
z
" style="fill:#c6a9b5;opacity:0.4;"/>
   </g>
   <g id="patch_44">
    <path clip-path="url(#pe4b40714a4)" d="M 334.76316 252 
L 341.232936 252 
L 341.232936 251.828855 
L 334.76316 251.828855 
z
" style="fill:#c6a9b5;opacity:0.4;"/>
   </g>
   <g id="patch_45">
    <path clip-path="url(#pe4b40714a4)" d="M 341.232936 252 
L 347.702713 252 
L 347.702713 251.828855 
L 341.232936 251.828855 
z
" style="fill:#c6a9b5;opacity:0.4;"/>
   </g>
   <g id="patch_46">
    <path clip-path="url(#pe4b40714a4)" d="M 347.702713 252 
L 354.172489 252 
L 354.172489 252 
L 347.702713 252 
z
" style="fill:#c6a9b5;opacity:0.4;"/>
   </g>
   <g id="patch_47">
    <path clip-path="url(#pe4b40714a4)" d="M 354.172489 252 
L 360.642265 252 
L 360.642265 252 
L 354.172489 252 
z
" style="fill:#c6a9b5;opacity:0.4;"/>
   </g>
   <g id="patch_48">
    <path clip-path="url(#pe4b40714a4)" d="M 360.642265 252 
L 367.112042 252 
L 367.112042 252 
L 360.642265 252 
z
" style="fill:#c6a9b5;opacity:0.4;"/>
   </g>
   <g id="patch_49">
    <path clip-path="url(#pe4b40714a4)" d="M 367.112042 252 
L 373.581818 252 
L 373.581818 251.828855 
L 367.112042 251.828855 
z
" style="fill:#c6a9b5;opacity:0.4;"/>
   </g>
   <g id="patch_50">
    <path clip-path="url(#pe4b40714a4)" d="M 69.218182 252 
L 72.817858 252 
L 72.817858 44.914286 
L 69.218182 44.914286 
z
" style="fill:#808080;opacity:0.4;"/>
   </g>
   <g id="patch_51">
    <path clip-path="url(#pe4b40714a4)" d="M 72.817858 252 
L 76.417535 252 
L 76.417535 223.076458 
L 72.817858 223.076458 
z
" style="fill:#808080;opacity:0.4;"/>
   </g>
   <g id="patch_52">
    <path clip-path="url(#pe4b40714a4)" d="M 76.417535 252 
L 80.017211 252 
L 80.017211 233.174026 
L 76.417535 233.174026 
z
" style="fill:#808080;opacity:0.4;"/>
   </g>
   <g id="patch_53">
    <path clip-path="url(#pe4b40714a4)" d="M 80.017211 252 
L 83.616888 252 
L 83.616888 236.083495 
L 80.017211 236.083495 
z
" style="fill:#808080;opacity:0.4;"/>
   </g>
   <g id="patch_54">
    <path clip-path="url(#pe4b40714a4)" d="M 83.616888 252 
L 87.216564 252 
L 87.216564 245.667627 
L 83.616888 245.667627 
z
" style="fill:#808080;opacity:0.4;"/>
   </g>
   <g id="patch_55">
    <path clip-path="url(#pe4b40714a4)" d="M 87.216564 252 
L 90.816241 252 
L 90.816241 246.352208 
L 87.216564 246.352208 
z
" style="fill:#808080;opacity:0.4;"/>
   </g>
   <g id="patch_56">
    <path clip-path="url(#pe4b40714a4)" d="M 90.816241 252 
L 94.415917 252 
L 94.415917 248.919386 
L 90.816241 248.919386 
z
" style="fill:#808080;opacity:0.4;"/>
   </g>
   <g id="patch_57">
    <path clip-path="url(#pe4b40714a4)" d="M 94.415917 252 
L 98.015594 252 
L 98.015594 249.432822 
L 94.415917 249.432822 
z
" style="fill:#808080;opacity:0.4;"/>
   </g>
   <g id="patch_58">
    <path clip-path="url(#pe4b40714a4)" d="M 98.015594 252 
L 101.61527 252 
L 101.61527 248.234805 
L 98.015594 248.234805 
z
" style="fill:#808080;opacity:0.4;"/>
   </g>
   <g id="patch_59">
    <path clip-path="url(#pe4b40714a4)" d="M 101.61527 252 
L 105.214947 252 
L 105.214947 249.775112 
L 101.61527 249.775112 
z
" style="fill:#808080;opacity:0.4;"/>
   </g>
   <g id="patch_60">
    <path clip-path="url(#pe4b40714a4)" d="M 105.214947 252 
L 108.814623 252 
L 108.814623 251.144274 
L 105.214947 251.144274 
z
" style="fill:#808080;opacity:0.4;"/>
   </g>
   <g id="patch_61">
    <path clip-path="url(#pe4b40714a4)" d="M 108.814623 252 
L 112.4143 252 
L 112.4143 250.973129 
L 108.814623 250.973129 
z
" style="fill:#808080;opacity:0.4;"/>
   </g>
   <g id="patch_62">
    <path clip-path="url(#pe4b40714a4)" d="M 112.4143 252 
L 116.013976 252 
L 116.013976 249.946257 
L 112.4143 249.946257 
z
" style="fill:#808080;opacity:0.4;"/>
   </g>
   <g id="patch_63">
    <path clip-path="url(#pe4b40714a4)" d="M 116.013976 252 
L 119.613653 252 
L 119.613653 249.261677 
L 116.013976 249.261677 
z
" style="fill:#808080;opacity:0.4;"/>
   </g>
   <g id="patch_64">
    <path clip-path="url(#pe4b40714a4)" d="M 119.613653 252 
L 123.213329 252 
L 123.213329 249.261677 
L 119.613653 249.261677 
z
" style="fill:#808080;opacity:0.4;"/>
   </g>
   <g id="patch_65">
    <path clip-path="url(#pe4b40714a4)" d="M 123.213329 252 
L 126.813006 252 
L 126.813006 250.117403 
L 123.213329 250.117403 
z
" style="fill:#808080;opacity:0.4;"/>
   </g>
   <g id="patch_66">
    <path clip-path="url(#pe4b40714a4)" d="M 126.813006 252 
L 130.412682 252 
L 130.412682 249.775112 
L 126.813006 249.775112 
z
" style="fill:#808080;opacity:0.4;"/>
   </g>
   <g id="patch_67">
    <path clip-path="url(#pe4b40714a4)" d="M 130.412682 252 
L 134.012359 252 
L 134.012359 250.973129 
L 130.412682 250.973129 
z
" style="fill:#808080;opacity:0.4;"/>
   </g>
   <g id="patch_68">
    <path clip-path="url(#pe4b40714a4)" d="M 134.012359 252 
L 137.612035 252 
L 137.612035 250.973129 
L 134.012359 250.973129 
z
" style="fill:#808080;opacity:0.4;"/>
   </g>
   <g id="patch_69">
    <path clip-path="url(#pe4b40714a4)" d="M 137.612035 252 
L 141.211712 252 
L 141.211712 251.144274 
L 137.612035 251.144274 
z
" style="fill:#808080;opacity:0.4;"/>
   </g>
   <g id="patch_70">
    <path clip-path="url(#pe4b40714a4)" d="M 141.211712 252 
L 144.811388 252 
L 144.811388 251.486564 
L 141.211712 251.486564 
z
" style="fill:#808080;opacity:0.4;"/>
   </g>
   <g id="patch_71">
    <path clip-path="url(#pe4b40714a4)" d="M 144.811388 252 
L 148.411065 252 
L 148.411065 250.459693 
L 144.811388 250.459693 
z
" style="fill:#808080;opacity:0.4;"/>
   </g>
   <g id="patch_72">
    <path clip-path="url(#pe4b40714a4)" d="M 148.411065 252 
L 152.010741 252 
L 152.010741 251.315419 
L 148.411065 251.315419 
z
" style="fill:#808080;opacity:0.4;"/>
   </g>
   <g id="patch_73">
    <path clip-path="url(#pe4b40714a4)" d="M 152.010741 252 
L 155.610417 252 
L 155.610417 251.486564 
L 152.010741 251.486564 
z
" style="fill:#808080;opacity:0.4;"/>
   </g>
   <g id="patch_74">
    <path clip-path="url(#pe4b40714a4)" d="M 155.610417 252 
L 159.210094 252 
L 159.210094 251.144274 
L 155.610417 251.144274 
z
" style="fill:#808080;opacity:0.4;"/>
   </g>
   <g id="patch_75">
    <path clip-path="url(#pe4b40714a4)" d="M 159.210094 252 
L 162.80977 252 
L 162.80977 251.65771 
L 159.210094 251.65771 
z
" style="fill:#808080;opacity:0.4;"/>
   </g>
   <g id="patch_76">
    <path clip-path="url(#pe4b40714a4)" d="M 162.80977 252 
L 166.409447 252 
L 166.409447 251.65771 
L 162.80977 251.65771 
z
" style="fill:#808080;opacity:0.4;"/>
   </g>
   <g id="patch_77">
    <path clip-path="url(#pe4b40714a4)" d="M 166.409447 252 
L 170.009123 252 
L 170.009123 251.315419 
L 166.409447 251.315419 
z
" style="fill:#808080;opacity:0.4;"/>
   </g>
   <g id="patch_78">
    <path clip-path="url(#pe4b40714a4)" d="M 170.009123 252 
L 173.6088 252 
L 173.6088 251.486564 
L 170.009123 251.486564 
z
" style="fill:#808080;opacity:0.4;"/>
   </g>
   <g id="patch_79">
    <path clip-path="url(#pe4b40714a4)" d="M 173.6088 252 
L 177.208476 252 
L 177.208476 251.65771 
L 173.6088 251.65771 
z
" style="fill:#808080;opacity:0.4;"/>
   </g>
   <g id="patch_80">
    <path clip-path="url(#pe4b40714a4)" d="M 177.208476 252 
L 180.808153 252 
L 180.808153 251.65771 
L 177.208476 251.65771 
z
" style="fill:#808080;opacity:0.4;"/>
   </g>
   <g id="patch_81">
    <path clip-path="url(#pe4b40714a4)" d="M 180.808153 252 
L 184.407829 252 
L 184.407829 251.828855 
L 180.808153 251.828855 
z
" style="fill:#808080;opacity:0.4;"/>
   </g>
   <g id="patch_82">
    <path clip-path="url(#pe4b40714a4)" d="M 184.407829 252 
L 188.007506 252 
L 188.007506 252 
L 184.407829 252 
z
" style="fill:#808080;opacity:0.4;"/>
   </g>
   <g id="patch_83">
    <path clip-path="url(#pe4b40714a4)" d="M 188.007506 252 
L 191.607182 252 
L 191.607182 252 
L 188.007506 252 
z
" style="fill:#808080;opacity:0.4;"/>
   </g>
   <g id="patch_84">
    <path clip-path="url(#pe4b40714a4)" d="M 191.607182 252 
L 195.206859 252 
L 195.206859 251.828855 
L 191.607182 251.828855 
z
" style="fill:#808080;opacity:0.4;"/>
   </g>
   <g id="patch_85">
    <path clip-path="url(#pe4b40714a4)" d="M 195.206859 252 
L 198.806535 252 
L 198.806535 252 
L 195.206859 252 
z
" style="fill:#808080;opacity:0.4;"/>
   </g>
   <g id="patch_86">
    <path clip-path="url(#pe4b40714a4)" d="M 198.806535 252 
L 202.406212 252 
L 202.406212 252 
L 198.806535 252 
z
" style="fill:#808080;opacity:0.4;"/>
   </g>
   <g id="patch_87">
    <path clip-path="url(#pe4b40714a4)" d="M 202.406212 252 
L 206.005888 252 
L 206.005888 252 
L 202.406212 252 
z
" style="fill:#808080;opacity:0.4;"/>
   </g>
   <g id="patch_88">
    <path clip-path="url(#pe4b40714a4)" d="M 206.005888 252 
L 209.605565 252 
L 209.605565 251.828855 
L 206.005888 251.828855 
z
" style="fill:#808080;opacity:0.4;"/>
   </g>
   <g id="patch_89">
    <path clip-path="url(#pe4b40714a4)" d="M 209.605565 252 
L 213.205241 252 
L 213.205241 252 
L 209.605565 252 
z
" style="fill:#808080;opacity:0.4;"/>
   </g>
   <g id="patch_90">
    <path clip-path="url(#pe4b40714a4)" d="M 213.205241 252 
L 216.804918 252 
L 216.804918 251.828855 
L 213.205241 251.828855 
z
" style="fill:#808080;opacity:0.4;"/>
   </g>
   <g id="patch_91">
    <path clip-path="url(#pe4b40714a4)" d="M 216.804918 252 
L 220.404594 252 
L 220.404594 252 
L 216.804918 252 
z
" style="fill:#808080;opacity:0.4;"/>
   </g>
   <g id="patch_92">
    <path clip-path="url(#pe4b40714a4)" d="M 220.404594 252 
L 224.004271 252 
L 224.004271 251.828855 
L 220.404594 251.828855 
z
" style="fill:#808080;opacity:0.4;"/>
   </g>
   <g id="patch_93">
    <path clip-path="url(#pe4b40714a4)" d="M 224.004271 252 
L 227.603947 252 
L 227.603947 251.65771 
L 224.004271 251.65771 
z
" style="fill:#808080;opacity:0.4;"/>
   </g>
   <g id="patch_94">
    <path clip-path="url(#pe4b40714a4)" d="M 227.603947 252 
L 231.203624 252 
L 231.203624 252 
L 227.603947 252 
z
" style="fill:#808080;opacity:0.4;"/>
   </g>
   <g id="patch_95">
    <path clip-path="url(#pe4b40714a4)" d="M 231.203624 252 
L 234.8033 252 
L 234.8033 252 
L 231.203624 252 
z
" style="fill:#808080;opacity:0.4;"/>
   </g>
   <g id="patch_96">
    <path clip-path="url(#pe4b40714a4)" d="M 234.8033 252 
L 238.402977 252 
L 238.402977 252 
L 234.8033 252 
z
" style="fill:#808080;opacity:0.4;"/>
   </g>
   <g id="patch_97">
    <path clip-path="url(#pe4b40714a4)" d="M 238.402977 252 
L 242.002653 252 
L 242.002653 251.828855 
L 238.402977 251.828855 
z
" style="fill:#808080;opacity:0.4;"/>
   </g>
   <g id="patch_98">
    <path clip-path="url(#pe4b40714a4)" d="M 242.002653 252 
L 245.60233 252 
L 245.60233 251.828855 
L 242.002653 251.828855 
z
" style="fill:#808080;opacity:0.4;"/>
   </g>
   <g id="patch_99">
    <path clip-path="url(#pe4b40714a4)" d="M 245.60233 252 
L 249.202006 252 
L 249.202006 251.828855 
L 245.60233 251.828855 
z
" style="fill:#808080;opacity:0.4;"/>
   </g>
   <g id="matplotlib.axis_1">
    <g id="xtick_1">
     <g id="line2d_1">
      <defs>
       <path d="M 0 0 
L 0 3.5 
" id="mdfb93fbbdd" style="stroke:#000000;stroke-width:0.8;"/>
      </defs>
      <g>
       <use style="stroke:#000000;stroke-width:0.8;" x="69.218182" xlink:href="#mdfb93fbbdd" y="252"/>
      </g>
     </g>
     <g id="text_1">
      <!-- 0 -->
      <defs>
       <path d="M 31.78125 66.40625 
Q 24.171875 66.40625 20.328125 58.90625 
Q 16.5 51.421875 16.5 36.375 
Q 16.5 21.390625 20.328125 13.890625 
Q 24.171875 6.390625 31.78125 6.390625 
Q 39.453125 6.390625 43.28125 13.890625 
Q 47.125 21.390625 47.125 36.375 
Q 47.125 51.421875 43.28125 58.90625 
Q 39.453125 66.40625 31.78125 66.40625 
z
M 31.78125 74.21875 
Q 44.046875 74.21875 50.515625 64.515625 
Q 56.984375 54.828125 56.984375 36.375 
Q 56.984375 17.96875 50.515625 8.265625 
Q 44.046875 -1.421875 31.78125 -1.421875 
Q 19.53125 -1.421875 13.0625 8.265625 
Q 6.59375 17.96875 6.59375 36.375 
Q 6.59375 54.828125 13.0625 64.515625 
Q 19.53125 74.21875 31.78125 74.21875 
z
" id="DejaVuSans-48"/>
      </defs>
      <g transform="translate(66.036932 266.598437)scale(0.1 -0.1)">
       <use xlink:href="#DejaVuSans-48"/>
      </g>
     </g>
    </g>
    <g id="xtick_2">
     <g id="line2d_2">
      <g>
       <use style="stroke:#000000;stroke-width:0.8;" x="124.105649" xlink:href="#mdfb93fbbdd" y="252"/>
      </g>
     </g>
     <g id="text_2">
      <!-- 100 -->
      <defs>
       <path d="M 12.40625 8.296875 
L 28.515625 8.296875 
L 28.515625 63.921875 
L 10.984375 60.40625 
L 10.984375 69.390625 
L 28.421875 72.90625 
L 38.28125 72.90625 
L 38.28125 8.296875 
L 54.390625 8.296875 
L 54.390625 0 
L 12.40625 0 
z
" id="DejaVuSans-49"/>
      </defs>
      <g transform="translate(114.561899 266.598437)scale(0.1 -0.1)">
       <use xlink:href="#DejaVuSans-49"/>
       <use x="63.623047" xlink:href="#DejaVuSans-48"/>
       <use x="127.246094" xlink:href="#DejaVuSans-48"/>
      </g>
     </g>
    </g>
    <g id="xtick_3">
     <g id="line2d_3">
      <g>
       <use style="stroke:#000000;stroke-width:0.8;" x="178.993116" xlink:href="#mdfb93fbbdd" y="252"/>
      </g>
     </g>
     <g id="text_3">
      <!-- 200 -->
      <defs>
       <path d="M 19.1875 8.296875 
L 53.609375 8.296875 
L 53.609375 0 
L 7.328125 0 
L 7.328125 8.296875 
Q 12.9375 14.109375 22.625 23.890625 
Q 32.328125 33.6875 34.8125 36.53125 
Q 39.546875 41.84375 41.421875 45.53125 
Q 43.3125 49.21875 43.3125 52.78125 
Q 43.3125 58.59375 39.234375 62.25 
Q 35.15625 65.921875 28.609375 65.921875 
Q 23.96875 65.921875 18.8125 64.3125 
Q 13.671875 62.703125 7.8125 59.421875 
L 7.8125 69.390625 
Q 13.765625 71.78125 18.9375 73 
Q 24.125 74.21875 28.421875 74.21875 
Q 39.75 74.21875 46.484375 68.546875 
Q 53.21875 62.890625 53.21875 53.421875 
Q 53.21875 48.921875 51.53125 44.890625 
Q 49.859375 40.875 45.40625 35.40625 
Q 44.1875 33.984375 37.640625 27.21875 
Q 31.109375 20.453125 19.1875 8.296875 
z
" id="DejaVuSans-50"/>
      </defs>
      <g transform="translate(169.449366 266.598437)scale(0.1 -0.1)">
       <use xlink:href="#DejaVuSans-50"/>
       <use x="63.623047" xlink:href="#DejaVuSans-48"/>
       <use x="127.246094" xlink:href="#DejaVuSans-48"/>
      </g>
     </g>
    </g>
    <g id="xtick_4">
     <g id="line2d_4">
      <g>
       <use style="stroke:#000000;stroke-width:0.8;" x="233.880583" xlink:href="#mdfb93fbbdd" y="252"/>
      </g>
     </g>
     <g id="text_4">
      <!-- 300 -->
      <defs>
       <path d="M 40.578125 39.3125 
Q 47.65625 37.796875 51.625 33 
Q 55.609375 28.21875 55.609375 21.1875 
Q 55.609375 10.40625 48.1875 4.484375 
Q 40.765625 -1.421875 27.09375 -1.421875 
Q 22.515625 -1.421875 17.65625 -0.515625 
Q 12.796875 0.390625 7.625 2.203125 
L 7.625 11.71875 
Q 11.71875 9.328125 16.59375 8.109375 
Q 21.484375 6.890625 26.8125 6.890625 
Q 36.078125 6.890625 40.9375 10.546875 
Q 45.796875 14.203125 45.796875 21.1875 
Q 45.796875 27.640625 41.28125 31.265625 
Q 36.765625 34.90625 28.71875 34.90625 
L 20.21875 34.90625 
L 20.21875 43.015625 
L 29.109375 43.015625 
Q 36.375 43.015625 40.234375 45.921875 
Q 44.09375 48.828125 44.09375 54.296875 
Q 44.09375 59.90625 40.109375 62.90625 
Q 36.140625 65.921875 28.71875 65.921875 
Q 24.65625 65.921875 20.015625 65.03125 
Q 15.375 64.15625 9.8125 62.3125 
L 9.8125 71.09375 
Q 15.4375 72.65625 20.34375 73.4375 
Q 25.25 74.21875 29.59375 74.21875 
Q 40.828125 74.21875 47.359375 69.109375 
Q 53.90625 64.015625 53.90625 55.328125 
Q 53.90625 49.265625 50.4375 45.09375 
Q 46.96875 40.921875 40.578125 39.3125 
z
" id="DejaVuSans-51"/>
      </defs>
      <g transform="translate(224.336833 266.598437)scale(0.1 -0.1)">
       <use xlink:href="#DejaVuSans-51"/>
       <use x="63.623047" xlink:href="#DejaVuSans-48"/>
       <use x="127.246094" xlink:href="#DejaVuSans-48"/>
      </g>
     </g>
    </g>
    <g id="xtick_5">
     <g id="line2d_5">
      <g>
       <use style="stroke:#000000;stroke-width:0.8;" x="288.76805" xlink:href="#mdfb93fbbdd" y="252"/>
      </g>
     </g>
     <g id="text_5">
      <!-- 400 -->
      <defs>
       <path d="M 37.796875 64.3125 
L 12.890625 25.390625 
L 37.796875 25.390625 
z
M 35.203125 72.90625 
L 47.609375 72.90625 
L 47.609375 25.390625 
L 58.015625 25.390625 
L 58.015625 17.1875 
L 47.609375 17.1875 
L 47.609375 0 
L 37.796875 0 
L 37.796875 17.1875 
L 4.890625 17.1875 
L 4.890625 26.703125 
z
" id="DejaVuSans-52"/>
      </defs>
      <g transform="translate(279.2243 266.598437)scale(0.1 -0.1)">
       <use xlink:href="#DejaVuSans-52"/>
       <use x="63.623047" xlink:href="#DejaVuSans-48"/>
       <use x="127.246094" xlink:href="#DejaVuSans-48"/>
      </g>
     </g>
    </g>
    <g id="xtick_6">
     <g id="line2d_6">
      <g>
       <use style="stroke:#000000;stroke-width:0.8;" x="343.655517" xlink:href="#mdfb93fbbdd" y="252"/>
      </g>
     </g>
     <g id="text_6">
      <!-- 500 -->
      <defs>
       <path d="M 10.796875 72.90625 
L 49.515625 72.90625 
L 49.515625 64.59375 
L 19.828125 64.59375 
L 19.828125 46.734375 
Q 21.96875 47.46875 24.109375 47.828125 
Q 26.265625 48.1875 28.421875 48.1875 
Q 40.625 48.1875 47.75 41.5 
Q 54.890625 34.8125 54.890625 23.390625 
Q 54.890625 11.625 47.5625 5.09375 
Q 40.234375 -1.421875 26.90625 -1.421875 
Q 22.3125 -1.421875 17.546875 -0.640625 
Q 12.796875 0.140625 7.71875 1.703125 
L 7.71875 11.625 
Q 12.109375 9.234375 16.796875 8.0625 
Q 21.484375 6.890625 26.703125 6.890625 
Q 35.15625 6.890625 40.078125 11.328125 
Q 45.015625 15.765625 45.015625 23.390625 
Q 45.015625 31 40.078125 35.4375 
Q 35.15625 39.890625 26.703125 39.890625 
Q 22.75 39.890625 18.8125 39.015625 
Q 14.890625 38.140625 10.796875 36.28125 
z
" id="DejaVuSans-53"/>
      </defs>
      <g transform="translate(334.111767 266.598437)scale(0.1 -0.1)">
       <use xlink:href="#DejaVuSans-53"/>
       <use x="63.623047" xlink:href="#DejaVuSans-48"/>
       <use x="127.246094" xlink:href="#DejaVuSans-48"/>
      </g>
     </g>
    </g>
    <g id="text_7">
     <!-- median accessory expression -->
     <defs>
      <path d="M 52 44.1875 
Q 55.375 50.25 60.0625 53.125 
Q 64.75 56 71.09375 56 
Q 79.640625 56 84.28125 50.015625 
Q 88.921875 44.046875 88.921875 33.015625 
L 88.921875 0 
L 79.890625 0 
L 79.890625 32.71875 
Q 79.890625 40.578125 77.09375 44.375 
Q 74.3125 48.1875 68.609375 48.1875 
Q 61.625 48.1875 57.5625 43.546875 
Q 53.515625 38.921875 53.515625 30.90625 
L 53.515625 0 
L 44.484375 0 
L 44.484375 32.71875 
Q 44.484375 40.625 41.703125 44.40625 
Q 38.921875 48.1875 33.109375 48.1875 
Q 26.21875 48.1875 22.15625 43.53125 
Q 18.109375 38.875 18.109375 30.90625 
L 18.109375 0 
L 9.078125 0 
L 9.078125 54.6875 
L 18.109375 54.6875 
L 18.109375 46.1875 
Q 21.1875 51.21875 25.484375 53.609375 
Q 29.78125 56 35.6875 56 
Q 41.65625 56 45.828125 52.96875 
Q 50 49.953125 52 44.1875 
z
" id="DejaVuSans-109"/>
      <path d="M 56.203125 29.59375 
L 56.203125 25.203125 
L 14.890625 25.203125 
Q 15.484375 15.921875 20.484375 11.0625 
Q 25.484375 6.203125 34.421875 6.203125 
Q 39.59375 6.203125 44.453125 7.46875 
Q 49.3125 8.734375 54.109375 11.28125 
L 54.109375 2.78125 
Q 49.265625 0.734375 44.1875 -0.34375 
Q 39.109375 -1.421875 33.890625 -1.421875 
Q 20.796875 -1.421875 13.15625 6.1875 
Q 5.515625 13.8125 5.515625 26.8125 
Q 5.515625 40.234375 12.765625 48.109375 
Q 20.015625 56 32.328125 56 
Q 43.359375 56 49.78125 48.890625 
Q 56.203125 41.796875 56.203125 29.59375 
z
M 47.21875 32.234375 
Q 47.125 39.59375 43.09375 43.984375 
Q 39.0625 48.390625 32.421875 48.390625 
Q 24.90625 48.390625 20.390625 44.140625 
Q 15.875 39.890625 15.1875 32.171875 
z
" id="DejaVuSans-101"/>
      <path d="M 45.40625 46.390625 
L 45.40625 75.984375 
L 54.390625 75.984375 
L 54.390625 0 
L 45.40625 0 
L 45.40625 8.203125 
Q 42.578125 3.328125 38.25 0.953125 
Q 33.9375 -1.421875 27.875 -1.421875 
Q 17.96875 -1.421875 11.734375 6.484375 
Q 5.515625 14.40625 5.515625 27.296875 
Q 5.515625 40.1875 11.734375 48.09375 
Q 17.96875 56 27.875 56 
Q 33.9375 56 38.25 53.625 
Q 42.578125 51.265625 45.40625 46.390625 
z
M 14.796875 27.296875 
Q 14.796875 17.390625 18.875 11.75 
Q 22.953125 6.109375 30.078125 6.109375 
Q 37.203125 6.109375 41.296875 11.75 
Q 45.40625 17.390625 45.40625 27.296875 
Q 45.40625 37.203125 41.296875 42.84375 
Q 37.203125 48.484375 30.078125 48.484375 
Q 22.953125 48.484375 18.875 42.84375 
Q 14.796875 37.203125 14.796875 27.296875 
z
" id="DejaVuSans-100"/>
      <path d="M 9.421875 54.6875 
L 18.40625 54.6875 
L 18.40625 0 
L 9.421875 0 
z
M 9.421875 75.984375 
L 18.40625 75.984375 
L 18.40625 64.59375 
L 9.421875 64.59375 
z
" id="DejaVuSans-105"/>
      <path d="M 34.28125 27.484375 
Q 23.390625 27.484375 19.1875 25 
Q 14.984375 22.515625 14.984375 16.5 
Q 14.984375 11.71875 18.140625 8.90625 
Q 21.296875 6.109375 26.703125 6.109375 
Q 34.1875 6.109375 38.703125 11.40625 
Q 43.21875 16.703125 43.21875 25.484375 
L 43.21875 27.484375 
z
M 52.203125 31.203125 
L 52.203125 0 
L 43.21875 0 
L 43.21875 8.296875 
Q 40.140625 3.328125 35.546875 0.953125 
Q 30.953125 -1.421875 24.3125 -1.421875 
Q 15.921875 -1.421875 10.953125 3.296875 
Q 6 8.015625 6 15.921875 
Q 6 25.140625 12.171875 29.828125 
Q 18.359375 34.515625 30.609375 34.515625 
L 43.21875 34.515625 
L 43.21875 35.40625 
Q 43.21875 41.609375 39.140625 45 
Q 35.0625 48.390625 27.6875 48.390625 
Q 23 48.390625 18.546875 47.265625 
Q 14.109375 46.140625 10.015625 43.890625 
L 10.015625 52.203125 
Q 14.9375 54.109375 19.578125 55.046875 
Q 24.21875 56 28.609375 56 
Q 40.484375 56 46.34375 49.84375 
Q 52.203125 43.703125 52.203125 31.203125 
z
" id="DejaVuSans-97"/>
      <path d="M 54.890625 33.015625 
L 54.890625 0 
L 45.90625 0 
L 45.90625 32.71875 
Q 45.90625 40.484375 42.875 44.328125 
Q 39.84375 48.1875 33.796875 48.1875 
Q 26.515625 48.1875 22.3125 43.546875 
Q 18.109375 38.921875 18.109375 30.90625 
L 18.109375 0 
L 9.078125 0 
L 9.078125 54.6875 
L 18.109375 54.6875 
L 18.109375 46.1875 
Q 21.34375 51.125 25.703125 53.5625 
Q 30.078125 56 35.796875 56 
Q 45.21875 56 50.046875 50.171875 
Q 54.890625 44.34375 54.890625 33.015625 
z
" id="DejaVuSans-110"/>
      <path id="DejaVuSans-32"/>
      <path d="M 48.78125 52.59375 
L 48.78125 44.1875 
Q 44.96875 46.296875 41.140625 47.34375 
Q 37.3125 48.390625 33.40625 48.390625 
Q 24.65625 48.390625 19.8125 42.84375 
Q 14.984375 37.3125 14.984375 27.296875 
Q 14.984375 17.28125 19.8125 11.734375 
Q 24.65625 6.203125 33.40625 6.203125 
Q 37.3125 6.203125 41.140625 7.25 
Q 44.96875 8.296875 48.78125 10.40625 
L 48.78125 2.09375 
Q 45.015625 0.34375 40.984375 -0.53125 
Q 36.96875 -1.421875 32.421875 -1.421875 
Q 20.0625 -1.421875 12.78125 6.34375 
Q 5.515625 14.109375 5.515625 27.296875 
Q 5.515625 40.671875 12.859375 48.328125 
Q 20.21875 56 33.015625 56 
Q 37.15625 56 41.109375 55.140625 
Q 45.0625 54.296875 48.78125 52.59375 
z
" id="DejaVuSans-99"/>
      <path d="M 44.28125 53.078125 
L 44.28125 44.578125 
Q 40.484375 46.53125 36.375 47.5 
Q 32.28125 48.484375 27.875 48.484375 
Q 21.1875 48.484375 17.84375 46.4375 
Q 14.5 44.390625 14.5 40.28125 
Q 14.5 37.15625 16.890625 35.375 
Q 19.28125 33.59375 26.515625 31.984375 
L 29.59375 31.296875 
Q 39.15625 29.25 43.1875 25.515625 
Q 47.21875 21.78125 47.21875 15.09375 
Q 47.21875 7.46875 41.1875 3.015625 
Q 35.15625 -1.421875 24.609375 -1.421875 
Q 20.21875 -1.421875 15.453125 -0.5625 
Q 10.6875 0.296875 5.421875 2 
L 5.421875 11.28125 
Q 10.40625 8.6875 15.234375 7.390625 
Q 20.0625 6.109375 24.8125 6.109375 
Q 31.15625 6.109375 34.5625 8.28125 
Q 37.984375 10.453125 37.984375 14.40625 
Q 37.984375 18.0625 35.515625 20.015625 
Q 33.0625 21.96875 24.703125 23.78125 
L 21.578125 24.515625 
Q 13.234375 26.265625 9.515625 29.90625 
Q 5.8125 33.546875 5.8125 39.890625 
Q 5.8125 47.609375 11.28125 51.796875 
Q 16.75 56 26.8125 56 
Q 31.78125 56 36.171875 55.265625 
Q 40.578125 54.546875 44.28125 53.078125 
z
" id="DejaVuSans-115"/>
      <path d="M 30.609375 48.390625 
Q 23.390625 48.390625 19.1875 42.75 
Q 14.984375 37.109375 14.984375 27.296875 
Q 14.984375 17.484375 19.15625 11.84375 
Q 23.34375 6.203125 30.609375 6.203125 
Q 37.796875 6.203125 41.984375 11.859375 
Q 46.1875 17.53125 46.1875 27.296875 
Q 46.1875 37.015625 41.984375 42.703125 
Q 37.796875 48.390625 30.609375 48.390625 
z
M 30.609375 56 
Q 42.328125 56 49.015625 48.375 
Q 55.71875 40.765625 55.71875 27.296875 
Q 55.71875 13.875 49.015625 6.21875 
Q 42.328125 -1.421875 30.609375 -1.421875 
Q 18.84375 -1.421875 12.171875 6.21875 
Q 5.515625 13.875 5.515625 27.296875 
Q 5.515625 40.765625 12.171875 48.375 
Q 18.84375 56 30.609375 56 
z
" id="DejaVuSans-111"/>
      <path d="M 41.109375 46.296875 
Q 39.59375 47.171875 37.8125 47.578125 
Q 36.03125 48 33.890625 48 
Q 26.265625 48 22.1875 43.046875 
Q 18.109375 38.09375 18.109375 28.8125 
L 18.109375 0 
L 9.078125 0 
L 9.078125 54.6875 
L 18.109375 54.6875 
L 18.109375 46.1875 
Q 20.953125 51.171875 25.484375 53.578125 
Q 30.03125 56 36.53125 56 
Q 37.453125 56 38.578125 55.875 
Q 39.703125 55.765625 41.0625 55.515625 
z
" id="DejaVuSans-114"/>
      <path d="M 32.171875 -5.078125 
Q 28.375 -14.84375 24.75 -17.8125 
Q 21.140625 -20.796875 15.09375 -20.796875 
L 7.90625 -20.796875 
L 7.90625 -13.28125 
L 13.1875 -13.28125 
Q 16.890625 -13.28125 18.9375 -11.515625 
Q 21 -9.765625 23.484375 -3.21875 
L 25.09375 0.875 
L 2.984375 54.6875 
L 12.5 54.6875 
L 29.59375 11.921875 
L 46.6875 54.6875 
L 56.203125 54.6875 
z
" id="DejaVuSans-121"/>
      <path d="M 54.890625 54.6875 
L 35.109375 28.078125 
L 55.90625 0 
L 45.3125 0 
L 29.390625 21.484375 
L 13.484375 0 
L 2.875 0 
L 24.125 28.609375 
L 4.6875 54.6875 
L 15.28125 54.6875 
L 29.78125 35.203125 
L 44.28125 54.6875 
z
" id="DejaVuSans-120"/>
      <path d="M 18.109375 8.203125 
L 18.109375 -20.796875 
L 9.078125 -20.796875 
L 9.078125 54.6875 
L 18.109375 54.6875 
L 18.109375 46.390625 
Q 20.953125 51.265625 25.265625 53.625 
Q 29.59375 56 35.59375 56 
Q 45.5625 56 51.78125 48.09375 
Q 58.015625 40.1875 58.015625 27.296875 
Q 58.015625 14.40625 51.78125 6.484375 
Q 45.5625 -1.421875 35.59375 -1.421875 
Q 29.59375 -1.421875 25.265625 0.953125 
Q 20.953125 3.328125 18.109375 8.203125 
z
M 48.6875 27.296875 
Q 48.6875 37.203125 44.609375 42.84375 
Q 40.53125 48.484375 33.40625 48.484375 
Q 26.265625 48.484375 22.1875 42.84375 
Q 18.109375 37.203125 18.109375 27.296875 
Q 18.109375 17.390625 22.1875 11.75 
Q 26.265625 6.109375 33.40625 6.109375 
Q 40.53125 6.109375 44.609375 11.75 
Q 48.6875 17.390625 48.6875 27.296875 
z
" id="DejaVuSans-112"/>
     </defs>
     <g transform="translate(132.587813 281.79625)scale(0.12 -0.12)">
      <use xlink:href="#DejaVuSans-109"/>
      <use x="97.412109" xlink:href="#DejaVuSans-101"/>
      <use x="158.935547" xlink:href="#DejaVuSans-100"/>
      <use x="222.412109" xlink:href="#DejaVuSans-105"/>
      <use x="250.195312" xlink:href="#DejaVuSans-97"/>
      <use x="311.474609" xlink:href="#DejaVuSans-110"/>
      <use x="374.853516" xlink:href="#DejaVuSans-32"/>
      <use x="406.640625" xlink:href="#DejaVuSans-97"/>
      <use x="467.919922" xlink:href="#DejaVuSans-99"/>
      <use x="522.900391" xlink:href="#DejaVuSans-99"/>
      <use x="577.880859" xlink:href="#DejaVuSans-101"/>
      <use x="639.404297" xlink:href="#DejaVuSans-115"/>
      <use x="691.503906" xlink:href="#DejaVuSans-115"/>
      <use x="743.603516" xlink:href="#DejaVuSans-111"/>
      <use x="804.785156" xlink:href="#DejaVuSans-114"/>
      <use x="845.898438" xlink:href="#DejaVuSans-121"/>
      <use x="905.078125" xlink:href="#DejaVuSans-32"/>
      <use x="936.865234" xlink:href="#DejaVuSans-101"/>
      <use x="998.373047" xlink:href="#DejaVuSans-120"/>
      <use x="1057.552734" xlink:href="#DejaVuSans-112"/>
      <use x="1121.029297" xlink:href="#DejaVuSans-114"/>
      <use x="1162.111328" xlink:href="#DejaVuSans-101"/>
      <use x="1223.634766" xlink:href="#DejaVuSans-115"/>
      <use x="1275.734375" xlink:href="#DejaVuSans-115"/>
      <use x="1327.833984" xlink:href="#DejaVuSans-105"/>
      <use x="1355.617188" xlink:href="#DejaVuSans-111"/>
      <use x="1416.798828" xlink:href="#DejaVuSans-110"/>
     </g>
    </g>
   </g>
   <g id="matplotlib.axis_2">
    <g id="ytick_1">
     <g id="line2d_7">
      <defs>
       <path d="M 0 0 
L -3.5 0 
" id="m60c6122ed3" style="stroke:#000000;stroke-width:0.8;"/>
      </defs>
      <g>
       <use style="stroke:#000000;stroke-width:0.8;" x="54" xlink:href="#m60c6122ed3" y="252"/>
      </g>
     </g>
     <g id="text_8">
      <!-- 0 -->
      <g transform="translate(40.6375 255.799219)scale(0.1 -0.1)">
       <use xlink:href="#DejaVuSans-48"/>
      </g>
     </g>
    </g>
    <g id="ytick_2">
     <g id="line2d_8">
      <g>
       <use style="stroke:#000000;stroke-width:0.8;" x="54" xlink:href="#m60c6122ed3" y="217.770956"/>
      </g>
     </g>
     <g id="text_9">
      <!-- 200 -->
      <g transform="translate(27.9125 221.570175)scale(0.1 -0.1)">
       <use xlink:href="#DejaVuSans-50"/>
       <use x="63.623047" xlink:href="#DejaVuSans-48"/>
       <use x="127.246094" xlink:href="#DejaVuSans-48"/>
      </g>
     </g>
    </g>
    <g id="ytick_3">
     <g id="line2d_9">
      <g>
       <use style="stroke:#000000;stroke-width:0.8;" x="54" xlink:href="#m60c6122ed3" y="183.541913"/>
      </g>
     </g>
     <g id="text_10">
      <!-- 400 -->
      <g transform="translate(27.9125 187.341131)scale(0.1 -0.1)">
       <use xlink:href="#DejaVuSans-52"/>
       <use x="63.623047" xlink:href="#DejaVuSans-48"/>
       <use x="127.246094" xlink:href="#DejaVuSans-48"/>
      </g>
     </g>
    </g>
    <g id="ytick_4">
     <g id="line2d_10">
      <g>
       <use style="stroke:#000000;stroke-width:0.8;" x="54" xlink:href="#m60c6122ed3" y="149.312869"/>
      </g>
     </g>
     <g id="text_11">
      <!-- 600 -->
      <defs>
       <path d="M 33.015625 40.375 
Q 26.375 40.375 22.484375 35.828125 
Q 18.609375 31.296875 18.609375 23.390625 
Q 18.609375 15.53125 22.484375 10.953125 
Q 26.375 6.390625 33.015625 6.390625 
Q 39.65625 6.390625 43.53125 10.953125 
Q 47.40625 15.53125 47.40625 23.390625 
Q 47.40625 31.296875 43.53125 35.828125 
Q 39.65625 40.375 33.015625 40.375 
z
M 52.59375 71.296875 
L 52.59375 62.3125 
Q 48.875 64.0625 45.09375 64.984375 
Q 41.3125 65.921875 37.59375 65.921875 
Q 27.828125 65.921875 22.671875 59.328125 
Q 17.53125 52.734375 16.796875 39.40625 
Q 19.671875 43.65625 24.015625 45.921875 
Q 28.375 48.1875 33.59375 48.1875 
Q 44.578125 48.1875 50.953125 41.515625 
Q 57.328125 34.859375 57.328125 23.390625 
Q 57.328125 12.15625 50.6875 5.359375 
Q 44.046875 -1.421875 33.015625 -1.421875 
Q 20.359375 -1.421875 13.671875 8.265625 
Q 6.984375 17.96875 6.984375 36.375 
Q 6.984375 53.65625 15.1875 63.9375 
Q 23.390625 74.21875 37.203125 74.21875 
Q 40.921875 74.21875 44.703125 73.484375 
Q 48.484375 72.75 52.59375 71.296875 
z
" id="DejaVuSans-54"/>
      </defs>
      <g transform="translate(27.9125 153.112088)scale(0.1 -0.1)">
       <use xlink:href="#DejaVuSans-54"/>
       <use x="63.623047" xlink:href="#DejaVuSans-48"/>
       <use x="127.246094" xlink:href="#DejaVuSans-48"/>
      </g>
     </g>
    </g>
    <g id="ytick_5">
     <g id="line2d_11">
      <g>
       <use style="stroke:#000000;stroke-width:0.8;" x="54" xlink:href="#m60c6122ed3" y="115.083825"/>
      </g>
     </g>
     <g id="text_12">
      <!-- 800 -->
      <defs>
       <path d="M 31.78125 34.625 
Q 24.75 34.625 20.71875 30.859375 
Q 16.703125 27.09375 16.703125 20.515625 
Q 16.703125 13.921875 20.71875 10.15625 
Q 24.75 6.390625 31.78125 6.390625 
Q 38.8125 6.390625 42.859375 10.171875 
Q 46.921875 13.96875 46.921875 20.515625 
Q 46.921875 27.09375 42.890625 30.859375 
Q 38.875 34.625 31.78125 34.625 
z
M 21.921875 38.8125 
Q 15.578125 40.375 12.03125 44.71875 
Q 8.5 49.078125 8.5 55.328125 
Q 8.5 64.0625 14.71875 69.140625 
Q 20.953125 74.21875 31.78125 74.21875 
Q 42.671875 74.21875 48.875 69.140625 
Q 55.078125 64.0625 55.078125 55.328125 
Q 55.078125 49.078125 51.53125 44.71875 
Q 48 40.375 41.703125 38.8125 
Q 48.828125 37.15625 52.796875 32.3125 
Q 56.78125 27.484375 56.78125 20.515625 
Q 56.78125 9.90625 50.3125 4.234375 
Q 43.84375 -1.421875 31.78125 -1.421875 
Q 19.734375 -1.421875 13.25 4.234375 
Q 6.78125 9.90625 6.78125 20.515625 
Q 6.78125 27.484375 10.78125 32.3125 
Q 14.796875 37.15625 21.921875 38.8125 
z
M 18.3125 54.390625 
Q 18.3125 48.734375 21.84375 45.5625 
Q 25.390625 42.390625 31.78125 42.390625 
Q 38.140625 42.390625 41.71875 45.5625 
Q 45.3125 48.734375 45.3125 54.390625 
Q 45.3125 60.0625 41.71875 63.234375 
Q 38.140625 66.40625 31.78125 66.40625 
Q 25.390625 66.40625 21.84375 63.234375 
Q 18.3125 60.0625 18.3125 54.390625 
z
" id="DejaVuSans-56"/>
      </defs>
      <g transform="translate(27.9125 118.883044)scale(0.1 -0.1)">
       <use xlink:href="#DejaVuSans-56"/>
       <use x="63.623047" xlink:href="#DejaVuSans-48"/>
       <use x="127.246094" xlink:href="#DejaVuSans-48"/>
      </g>
     </g>
    </g>
    <g id="ytick_6">
     <g id="line2d_12">
      <g>
       <use style="stroke:#000000;stroke-width:0.8;" x="54" xlink:href="#m60c6122ed3" y="80.854782"/>
      </g>
     </g>
     <g id="text_13">
      <!-- 1000 -->
      <g transform="translate(21.55 84.654)scale(0.1 -0.1)">
       <use xlink:href="#DejaVuSans-49"/>
       <use x="63.623047" xlink:href="#DejaVuSans-48"/>
       <use x="127.246094" xlink:href="#DejaVuSans-48"/>
       <use x="190.869141" xlink:href="#DejaVuSans-48"/>
      </g>
     </g>
    </g>
    <g id="ytick_7">
     <g id="line2d_13">
      <g>
       <use style="stroke:#000000;stroke-width:0.8;" x="54" xlink:href="#m60c6122ed3" y="46.625738"/>
      </g>
     </g>
     <g id="text_14">
      <!-- 1200 -->
      <g transform="translate(21.55 50.424957)scale(0.1 -0.1)">
       <use xlink:href="#DejaVuSans-49"/>
       <use x="63.623047" xlink:href="#DejaVuSans-50"/>
       <use x="127.246094" xlink:href="#DejaVuSans-48"/>
       <use x="190.869141" xlink:href="#DejaVuSans-48"/>
      </g>
     </g>
    </g>
    <g id="text_15">
     <!-- count -->
     <defs>
      <path d="M 8.5 21.578125 
L 8.5 54.6875 
L 17.484375 54.6875 
L 17.484375 21.921875 
Q 17.484375 14.15625 20.5 10.265625 
Q 23.53125 6.390625 29.59375 6.390625 
Q 36.859375 6.390625 41.078125 11.03125 
Q 45.3125 15.671875 45.3125 23.6875 
L 45.3125 54.6875 
L 54.296875 54.6875 
L 54.296875 0 
L 45.3125 0 
L 45.3125 8.40625 
Q 42.046875 3.421875 37.71875 1 
Q 33.40625 -1.421875 27.6875 -1.421875 
Q 18.265625 -1.421875 13.375 4.4375 
Q 8.5 10.296875 8.5 21.578125 
z
M 31.109375 56 
z
" id="DejaVuSans-117"/>
      <path d="M 18.3125 70.21875 
L 18.3125 54.6875 
L 36.8125 54.6875 
L 36.8125 47.703125 
L 18.3125 47.703125 
L 18.3125 18.015625 
Q 18.3125 11.328125 20.140625 9.421875 
Q 21.96875 7.515625 27.59375 7.515625 
L 36.8125 7.515625 
L 36.8125 0 
L 27.59375 0 
Q 17.1875 0 13.234375 3.875 
Q 9.28125 7.765625 9.28125 18.015625 
L 9.28125 47.703125 
L 2.6875 47.703125 
L 2.6875 54.6875 
L 9.28125 54.6875 
L 9.28125 70.21875 
z
" id="DejaVuSans-116"/>
     </defs>
     <g transform="translate(15.054375 160.2075)rotate(-90)scale(0.12 -0.12)">
      <use xlink:href="#DejaVuSans-99"/>
      <use x="54.980469" xlink:href="#DejaVuSans-111"/>
      <use x="116.162109" xlink:href="#DejaVuSans-117"/>
      <use x="179.541016" xlink:href="#DejaVuSans-110"/>
      <use x="242.919922" xlink:href="#DejaVuSans-116"/>
     </g>
    </g>
   </g>
   <g id="line2d_14">
    <path clip-path="url(#pe4b40714a4)" d="M 82.940049 252 
L 82.940049 -1 
" style="fill:none;stroke:#ff0000;stroke-linecap:square;stroke-width:1.5;"/>
   </g>
   <g id="patch_100">
    <path d="M 54 252 
L 54 34.56 
" style="fill:none;stroke:#000000;stroke-linecap:square;stroke-linejoin:miter;stroke-width:0.8;"/>
   </g>
   <g id="patch_101">
    <path d="M 388.8 252 
L 388.8 34.56 
" style="fill:none;stroke:#000000;stroke-linecap:square;stroke-linejoin:miter;stroke-width:0.8;"/>
   </g>
   <g id="patch_102">
    <path d="M 54 252 
L 388.8 252 
" style="fill:none;stroke:#000000;stroke-linecap:square;stroke-linejoin:miter;stroke-width:0.8;"/>
   </g>
   <g id="patch_103">
    <path d="M 54 34.56 
L 388.8 34.56 
" style="fill:none;stroke:#000000;stroke-linecap:square;stroke-linejoin:miter;stroke-width:0.8;"/>
   </g>
   <g id="text_16">
    <!-- PAO1 median accessory expression -->
    <defs>
     <path d="M 19.671875 64.796875 
L 19.671875 37.40625 
L 32.078125 37.40625 
Q 38.96875 37.40625 42.71875 40.96875 
Q 46.484375 44.53125 46.484375 51.125 
Q 46.484375 57.671875 42.71875 61.234375 
Q 38.96875 64.796875 32.078125 64.796875 
z
M 9.8125 72.90625 
L 32.078125 72.90625 
Q 44.34375 72.90625 50.609375 67.359375 
Q 56.890625 61.8125 56.890625 51.125 
Q 56.890625 40.328125 50.609375 34.8125 
Q 44.34375 29.296875 32.078125 29.296875 
L 19.671875 29.296875 
L 19.671875 0 
L 9.8125 0 
z
" id="DejaVuSans-80"/>
     <path d="M 34.1875 63.1875 
L 20.796875 26.90625 
L 47.609375 26.90625 
z
M 28.609375 72.90625 
L 39.796875 72.90625 
L 67.578125 0 
L 57.328125 0 
L 50.6875 18.703125 
L 17.828125 18.703125 
L 11.1875 0 
L 0.78125 0 
z
" id="DejaVuSans-65"/>
     <path d="M 39.40625 66.21875 
Q 28.65625 66.21875 22.328125 58.203125 
Q 16.015625 50.203125 16.015625 36.375 
Q 16.015625 22.609375 22.328125 14.59375 
Q 28.65625 6.59375 39.40625 6.59375 
Q 50.140625 6.59375 56.421875 14.59375 
Q 62.703125 22.609375 62.703125 36.375 
Q 62.703125 50.203125 56.421875 58.203125 
Q 50.140625 66.21875 39.40625 66.21875 
z
M 39.40625 74.21875 
Q 54.734375 74.21875 63.90625 63.9375 
Q 73.09375 53.65625 73.09375 36.375 
Q 73.09375 19.140625 63.90625 8.859375 
Q 54.734375 -1.421875 39.40625 -1.421875 
Q 24.03125 -1.421875 14.8125 8.828125 
Q 5.609375 19.09375 5.609375 36.375 
Q 5.609375 53.65625 14.8125 63.9375 
Q 24.03125 74.21875 39.40625 74.21875 
z
" id="DejaVuSans-79"/>
    </defs>
    <g transform="translate(78.76625 28.56)scale(0.16 -0.16)">
     <use xlink:href="#DejaVuSans-80"/>
     <use x="60.208984" xlink:href="#DejaVuSans-65"/>
     <use x="128.601562" xlink:href="#DejaVuSans-79"/>
     <use x="207.3125" xlink:href="#DejaVuSans-49"/>
     <use x="270.935547" xlink:href="#DejaVuSans-32"/>
     <use x="302.722656" xlink:href="#DejaVuSans-109"/>
     <use x="400.134766" xlink:href="#DejaVuSans-101"/>
     <use x="461.658203" xlink:href="#DejaVuSans-100"/>
     <use x="525.134766" xlink:href="#DejaVuSans-105"/>
     <use x="552.917969" xlink:href="#DejaVuSans-97"/>
     <use x="614.197266" xlink:href="#DejaVuSans-110"/>
     <use x="677.576172" xlink:href="#DejaVuSans-32"/>
     <use x="709.363281" xlink:href="#DejaVuSans-97"/>
     <use x="770.642578" xlink:href="#DejaVuSans-99"/>
     <use x="825.623047" xlink:href="#DejaVuSans-99"/>
     <use x="880.603516" xlink:href="#DejaVuSans-101"/>
     <use x="942.126953" xlink:href="#DejaVuSans-115"/>
     <use x="994.226562" xlink:href="#DejaVuSans-115"/>
     <use x="1046.326172" xlink:href="#DejaVuSans-111"/>
     <use x="1107.507812" xlink:href="#DejaVuSans-114"/>
     <use x="1148.621094" xlink:href="#DejaVuSans-121"/>
     <use x="1207.800781" xlink:href="#DejaVuSans-32"/>
     <use x="1239.587891" xlink:href="#DejaVuSans-101"/>
     <use x="1301.095703" xlink:href="#DejaVuSans-120"/>
     <use x="1360.275391" xlink:href="#DejaVuSans-112"/>
     <use x="1423.751953" xlink:href="#DejaVuSans-114"/>
     <use x="1464.833984" xlink:href="#DejaVuSans-101"/>
     <use x="1526.357422" xlink:href="#DejaVuSans-115"/>
     <use x="1578.457031" xlink:href="#DejaVuSans-115"/>
     <use x="1630.556641" xlink:href="#DejaVuSans-105"/>
     <use x="1658.339844" xlink:href="#DejaVuSans-111"/>
     <use x="1719.521484" xlink:href="#DejaVuSans-110"/>
    </g>
   </g>
  </g>
 </g>
 <defs>
  <clipPath id="pe4b40714a4">
   <rect height="217.44" width="334.8" x="54" y="34.56"/>
  </clipPath>
 </defs>
</svg>
